<?xml version="1.0" encoding="utf-8"?>
<!-- Generator: Adobe Illustrator 16.0.0, SVG Export Plug-In . SVG Version: 6.00 Build 0)  -->
<!DOCTYPE svg PUBLIC "-//W3C//DTD SVG 1.1//EN" "http://www.w3.org/Graphics/SVG/1.1/DTD/svg11.dtd">
<svg version="1.1" id="Layer_1" xmlns="http://www.w3.org/2000/svg" xmlns:xlink="http://www.w3.org/1999/xlink" x="0px" y="0px"
	 width="171.043px" height="84.871px" viewBox="0 0 171.043 84.871" enable-background="new 0 0 171.043 84.871"
	 xml:space="preserve">
<polygon fill="#FFFFFF" points="0,27.221 0,68.887 27,68.887 27,37.221 9.5,37.221 9.5,42.221 22,42.221 22,63.887 5,63.887 
	5,32.221 30.333,32.221 30.333,68.887 35.333,68.887 35.333,27.221 "/>
<polygon fill="#FFFFFF" points="70.792,27.221 62.062,60.218 53.333,27.221 39.333,27.221 39.333,42.929 44.333,42.929 
	44.333,32.221 49.413,32.221 59.418,68.699 64.708,68.699 74.711,32.221 79.792,32.221 79.792,42.929 84.792,42.929 84.792,27.221 
	"/>
<polygon fill="#FFFFFF" points="134.583,49.013 134.583,61.763 145.583,61.763 145.583,56.763 139.583,56.763 139.583,54.013 
	148.083,54.013 148.083,64.346 132.833,64.346 132.833,27.096 118.333,27.096 118.333,45.679 114.458,45.679 114.458,27.096 
	99.958,27.096 99.958,63.887 84.708,63.887 84.708,53.554 93.208,53.554 93.208,56.304 87.208,56.304 87.208,61.304 98.208,61.304 
	98.208,48.554 79.708,48.554 79.708,68.887 104.958,68.887 104.958,32.096 109.458,32.096 109.458,50.679 123.333,50.679 
	123.333,32.555 127.833,32.555 127.833,69.346 153.083,69.346 153.083,49.013 "/>
<g>
	<polygon fill="#F9CB0F" points="157.679,11.682 148.956,11.682 146.685,11.682 146.612,11.682 146.612,25.886 146.612,27.634 
		146.612,28.229 154.357,28.229 156.353,28.229 156.353,25.886 156.353,18.314 156.353,17.142 156.353,15.97 152.903,15.97 
		150.793,15.97 150.559,15.97 150.559,23.068 152.903,23.068 152.903,18.314 154.357,18.314 154.357,25.886 148.956,25.886 
		148.956,14.025 157.679,14.025 157.679,22.902 159.482,22.902 159.482,14.025 159.482,11.682 	"/>
	<g>
		<rect x="160.5" y="18.849" fill="#F9CB0F" width="10.545" height="2.344"/>
	</g>
	<g>
		<rect x="152.254" fill="#F9CB0F" width="2.17" height="9.034"/>
	</g>
	<g>
		
			<rect x="163.228" y="6.901" transform="matrix(-0.7072 -0.707 0.707 -0.7072 272.9968 133.6282)" fill="#F9CB0F" width="1.878" height="6.778"/>
	</g>
	<g>
		
			<rect x="141.593" y="27.181" transform="matrix(-0.7067 -0.7075 0.7075 -0.7067 221.534 153.3968)" fill="#F9CB0F" width="1.936" height="7.204"/>
	</g>
	<g>
		<rect x="152.247" y="30.776" fill="#F9CB0F" width="2.188" height="9.168"/>
	</g>
	<g>
		
			<rect x="139.058" y="8.744" transform="matrix(-0.707 -0.7072 0.7072 -0.707 236.0904 117.1342)" fill="#F9CB0F" width="6.5" height="1.839"/>
	</g>
	<g>
		
			<rect x="157.313" y="28.241" transform="matrix(-0.707 -0.7072 0.7072 -0.707 255.7508 164.6472)" fill="#F9CB0F" width="9.342" height="2.203"/>
	</g>
	<g>
		<rect x="135.124" y="18.849" fill="#F9CB0F" width="10.545" height="2.344"/>
	</g>
</g>
<g>
	<path fill="#FFFFFF" d="M2.55,79.014l-1.012,2.819H0.19l3.642-9.686h1.484l3.507,9.686h-1.43l-0.958-2.819H2.55z M5.963,77.854
		l-1.43-4.263H4.506l-1.551,4.263H5.963z"/>
	<path fill="#FFFFFF" d="M15.463,81.253c0,1.012-0.014,3.547-3.278,3.547c-0.836,0-2.468-0.229-2.698-2.104h1.187
		c0.216,1.12,1.309,1.12,1.592,1.12c2.05,0,2.01-1.646,2.01-2.482v-0.297h-0.027v0.055c-0.311,0.498-0.931,0.943-1.875,0.943
		c-2.401,0-3.103-2.252-3.103-3.938c0-1.982,1.065-3.521,2.94-3.521c1.282,0,1.821,0.797,2.104,1.2h0.027v-0.998h1.12L15.463,81.253
		L15.463,81.253z M12.401,81.011c0.755,0,1.929-0.499,1.929-2.374c0-1.146-0.188-2.995-1.902-2.995c-1.834,0-1.929,1.74-1.929,2.645
		C10.499,79.837,11.106,81.011,12.401,81.011z"/>
	<path fill="#FFFFFF" d="M23.101,79.621c-0.041,0.338-0.364,1.336-1.254,1.93c-0.324,0.216-0.782,0.484-1.916,0.484
		c-1.983,0-3.156-1.496-3.156-3.533c0-2.187,1.052-3.926,3.386-3.926c2.037,0,3.035,1.619,3.035,4.114h-5.152
		c0,1.472,0.688,2.319,2.05,2.319c1.12,0,1.78-0.862,1.821-1.389H23.101L23.101,79.621z M21.968,77.748
		c-0.068-1.094-0.526-2.104-1.97-2.104c-1.092,0-1.956,1.013-1.956,2.104H21.968z"/>
	<path fill="#FFFFFF" d="M30.361,81.833h-1.187V77.49c0-1.228-0.351-1.848-1.511-1.848c-0.674,0-1.861,0.432-1.861,2.348v3.844
		h-1.187v-7.056h1.119v0.998h0.027c0.256-0.377,0.917-1.2,2.131-1.2c1.093,0,2.469,0.445,2.469,2.455V81.833z"/>
	<path fill="#FFFFFF" d="M36.529,77.153c-0.148-0.944-0.674-1.511-1.673-1.511c-1.47,0-1.942,1.402-1.942,2.656
		c0,1.215,0.297,2.711,1.929,2.711c0.796,0,1.484-0.594,1.686-1.672h1.146c-0.121,1.119-0.809,2.697-2.873,2.697
		c-1.983,0-3.156-1.496-3.156-3.533c0-2.187,1.052-3.926,3.386-3.926c1.848,0,2.549,1.35,2.644,2.576L36.529,77.153L36.529,77.153z"
		/>
	<path fill="#FFFFFF" d="M38.892,73.498v-1.349h1.187v1.349H38.892z M40.079,81.833h-1.187v-7.056h1.187V81.833z"/>
	<path fill="#FFFFFF" d="M41.82,76.923c0.054-1.687,1.173-2.346,2.914-2.346c0.566,0,2.617,0.162,2.617,1.969v4.06
		c0,0.297,0.148,0.418,0.391,0.418c0.108,0,0.256-0.026,0.391-0.054v0.863c-0.202,0.054-0.377,0.135-0.647,0.135
		c-1.052,0-1.214-0.541-1.254-1.079c-0.458,0.499-1.173,1.146-2.549,1.146c-1.295,0-2.212-0.822-2.212-2.037
		c0-0.594,0.176-1.969,2.145-2.211l1.956-0.244c0.284-0.026,0.621-0.135,0.621-0.836c0-0.742-0.54-1.146-1.659-1.146
		c-1.349,0-1.538,0.822-1.619,1.363H41.82L41.82,76.923z M46.164,78.232c-0.189,0.148-0.485,0.256-1.956,0.445
		c-0.58,0.08-1.511,0.256-1.511,1.146c0,0.768,0.392,1.227,1.282,1.227c1.106,0,2.185-0.715,2.185-1.658V78.232z"/>
	<path fill="#FFFFFF" d="M58.969,81.833h-1.12v-0.972h-0.027c-0.513,0.958-1.322,1.173-2.01,1.173c-2.401,0-3.103-2.252-3.103-3.938
		c0-1.982,1.065-3.521,2.94-3.521c1.281,0,1.821,0.797,2.104,1.2l0.027-0.094v-3.534h1.187v9.686H58.969z M55.84,81.011
		c0.755,0,1.929-0.499,1.929-2.374c0-1.146-0.189-2.995-1.902-2.995c-1.834,0-1.929,1.74-1.929,2.645
		C53.938,79.837,54.545,81.011,55.84,81.011z"/>
	<path fill="#FFFFFF" d="M66.607,79.621c-0.041,0.338-0.364,1.336-1.254,1.93c-0.324,0.216-0.782,0.484-1.916,0.484
		c-1.983,0-3.156-1.496-3.156-3.533c0-2.187,1.052-3.926,3.386-3.926c2.037,0,3.035,1.619,3.035,4.114h-5.153
		c0,1.472,0.688,2.319,2.05,2.319c1.12,0,1.78-0.862,1.821-1.389H66.607L66.607,79.621z M65.474,77.748
		c-0.067-1.094-0.526-2.104-1.97-2.104c-1.092,0-1.956,1.013-1.956,2.104H65.474z"/>
	<path fill="#FFFFFF" d="M77.578,72.148h1.47l-3.534,9.686h-1.39l-3.534-9.686h1.457l2.765,8.255h0.027L77.578,72.148z"/>
	<path fill="#FFFFFF" d="M80.226,73.498v-1.349h1.187v1.349H80.226z M81.413,81.833h-1.187v-7.056h1.187V81.833z"/>
	<path fill="#FFFFFF" d="M83.154,76.923c0.054-1.687,1.173-2.346,2.914-2.346c0.565,0,2.617,0.162,2.617,1.969v4.06
		c0,0.297,0.147,0.418,0.392,0.418c0.107,0,0.256-0.026,0.391-0.054v0.863c-0.202,0.054-0.377,0.135-0.647,0.135
		c-1.052,0-1.214-0.541-1.254-1.079c-0.458,0.499-1.173,1.146-2.549,1.146c-1.295,0-2.212-0.822-2.212-2.037
		c0-0.594,0.176-1.969,2.145-2.211l1.956-0.244c0.284-0.026,0.621-0.135,0.621-0.836c0-0.742-0.54-1.146-1.659-1.146
		c-1.349,0-1.538,0.822-1.619,1.363H83.154L83.154,76.923z M87.499,78.232c-0.189,0.148-0.485,0.256-1.957,0.445
		c-0.58,0.08-1.511,0.256-1.511,1.146c0,0.768,0.392,1.227,1.282,1.227c1.105,0,2.186-0.715,2.186-1.658V78.232z"/>
	<path fill="#FFFFFF" d="M91.913,82.873c0,0.606-0.055,1.793-1.809,1.793c-0.162,0-0.324-0.013-0.499-0.041V83.6h0.243
		c0.701,0,0.877-0.067,0.877-0.863v-7.958h1.188V82.873z M91.913,73.498h-1.188v-1.349h1.188V73.498z"/>
	<path fill="#FFFFFF" d="M99.682,79.621c-0.041,0.338-0.364,1.336-1.254,1.93c-0.324,0.216-0.782,0.484-1.916,0.484
		c-1.983,0-3.156-1.496-3.156-3.533c0-2.187,1.053-3.926,3.387-3.926c2.036,0,3.034,1.619,3.034,4.114h-5.153
		c0,1.472,0.688,2.319,2.051,2.319c1.119,0,1.779-0.862,1.82-1.389H99.682L99.682,79.621z M98.549,77.748
		c-0.067-1.094-0.526-2.104-1.971-2.104c-1.092,0-1.955,1.013-1.955,2.104H98.549z"/>
	<path fill="#FFFFFF" d="M105.202,76.789c-0.013-0.445-0.175-1.187-1.672-1.187c-0.363,0-1.402,0.122-1.402,0.998
		c0,0.58,0.363,0.715,1.281,0.944l1.187,0.297c1.47,0.363,1.983,0.904,1.983,1.861c0,1.457-1.201,2.332-2.793,2.332
		c-2.791,0-2.994-1.619-3.035-2.468h1.146c0.041,0.554,0.203,1.442,1.875,1.442c0.85,0,1.619-0.336,1.619-1.119
		c0-0.566-0.391-0.756-1.403-1.012l-1.376-0.338c-0.984-0.242-1.632-0.742-1.632-1.713c0-1.551,1.281-2.252,2.67-2.252
		c2.522,0,2.698,1.861,2.698,2.213H105.202L105.202,76.789z"/>
	<path fill="#FFFFFF" d="M119.815,81.833v-5.719c0-0.283,0.027-1.512,0.027-2.416h-0.027l-2.725,8.135h-1.295l-2.726-8.121h-0.026
		c0,0.891,0.026,2.119,0.026,2.402v5.719h-1.268v-9.686h1.875l2.766,8.188h0.027l2.751-8.188h1.861v9.686H119.815z"/>
	<path fill="#FFFFFF" d="M128.924,79.621c-0.041,0.338-0.363,1.336-1.254,1.93c-0.323,0.216-0.781,0.484-1.916,0.484
		c-1.982,0-3.155-1.496-3.155-3.533c0-2.187,1.052-3.926,3.386-3.926c2.037,0,3.035,1.619,3.035,4.114h-5.152
		c0,1.472,0.688,2.319,2.051,2.319c1.119,0,1.779-0.862,1.82-1.389H128.924L128.924,79.621z M127.792,77.748
		c-0.067-1.094-0.525-2.104-1.97-2.104c-1.092,0-1.956,1.013-1.956,2.104H127.792z M126.12,73.833h-0.904l1.201-1.901h1.457
		L126.12,73.833z"/>
	<path fill="#FFFFFF" d="M135.767,81.833h-1.511l-1.754-2.658l-1.699,2.658h-1.497l2.481-3.629l-2.359-3.426h1.523l1.633,2.482
		l1.631-2.482h1.457l-2.387,3.426L135.767,81.833z"/>
	<path fill="#FFFFFF" d="M136.808,73.498v-1.349h1.187v1.349H136.808z M137.995,81.833h-1.187v-7.056h1.187V81.833z"/>
	<path fill="#FFFFFF" d="M144.188,77.153c-0.148-0.944-0.674-1.511-1.672-1.511c-1.471,0-1.941,1.402-1.941,2.656
		c0,1.215,0.295,2.711,1.928,2.711c0.797,0,1.484-0.594,1.687-1.672h1.146c-0.121,1.119-0.809,2.697-2.873,2.697
		c-1.982,0-3.155-1.496-3.155-3.533c0-2.187,1.052-3.926,3.386-3.926c1.848,0,2.549,1.35,2.645,2.576L144.188,77.153L144.188,77.153
		z"/>
	<path fill="#FFFFFF" d="M149.397,74.578c2.253,0,3.277,1.901,3.277,3.723c0,1.82-1.024,3.723-3.277,3.723
		c-2.252,0-3.277-1.902-3.277-3.723C146.12,76.479,147.145,74.578,149.397,74.578z M149.397,80.998c1.7,0,2.051-1.754,2.051-2.699
		c0-0.943-0.351-2.697-2.051-2.697c-1.699,0-2.05,1.754-2.05,2.697C147.347,79.244,147.698,80.998,149.397,80.998z"/>
</g>
</svg>
